
<?xml version="1.0" standalone="no"?>
<!DOCTYPE svg PUBLIC "-//W3C//DTD SVG 20010904//EN"
 "http://www.w3.org/TR/2001/REC-SVG-20010904/DTD/svg10.dtd">
<svg version="1.0" xmlns="http://www.w3.org/2000/svg"
 width="115.000000pt" height="114.000000pt" viewBox="0 0 115.000000 114.000000"
 preserveAspectRatio="xMidYMid meet" fill="#FF0000">

<g transform="translate(0.000000,114.000000) scale(0.100000,-0.100000)" stroke="#000000">
<path d="M0 570 l0 -570 575 0 575 0 0 570 0 570 -575 0 -575 0 0 -570z m1130
428 c-1 -21 -25 -59 -177 -276 -51 -72 -77 -92 -119 -92 -59 0 -258 39 -339
66 -163 54 -345 163 -419 250 -57 68 -23 80 107 39 254 -81 603 -74 852 19 22
8 52 15 68 15 22 1 27 -3 27 -21z m-811 -297 c106 -68 231 -117 431 -168 66
-17 54 -47 -108 -268 -72 -98 -86 -98 -153 8 -26 39 -96 149 -157 242 -60 94
-113 184 -116 202 -7 32 -7 32 24 23 18 -5 53 -23 79 -39z"/>
</g>
</svg>
